<svg width="153" height="39" viewBox="0 0 153 39" fill="none" xmlns="http://www.w3.org/2000/svg">
<g opacity="0.8">
<path d="M20.2769 20.1265C17.785 20.1265 15.8051 21.1302 14.4056 23.1029C13.5864 21.5801 11.9479 20.1265 9.45599 20.1265C6.89584 20.1265 5.39389 21.2686 4.3357 22.4799V22.1338C4.3357 21.1302 3.51645 20.2995 2.52653 20.2995C1.53661 20.2995 0.751495 21.1302 0.751495 22.1338V36.0817C0.751495 37.0854 1.53661 37.8814 2.52653 37.8814C3.51645 37.8814 4.3357 37.0854 4.3357 36.0817V26.4255C5.15494 25.0757 6.38381 23.5529 8.60261 23.5529C10.719 23.5529 11.5382 24.5912 11.5382 27.2907V36.0817C11.5382 37.0854 12.3233 37.8814 13.3133 37.8814C14.3032 37.8814 15.1224 37.0854 15.1224 36.0817V26.4255C15.9417 25.0757 17.1706 23.5529 19.3893 23.5529C21.5057 23.5529 22.325 24.5912 22.325 27.2907V36.0817C22.325 37.0854 23.1101 37.8814 24.1 37.8814C25.0899 37.8814 25.9092 37.0854 25.9092 36.0817V26.7024C25.9774 23.5182 24.2024 20.1265 20.2769 20.1265Z" fill="#888888"/>
<path d="M37.4811 20.1265C35.5012 20.1265 33.6921 20.5072 31.8146 21.3378C31.166 21.6147 30.7564 22.1685 30.7564 22.8953C30.7564 23.7951 31.4391 24.4873 32.2925 24.4873C32.429 24.4873 32.5997 24.4527 32.8045 24.4181C34.0675 24.0028 35.2623 23.6567 36.969 23.6567C39.734 23.6567 40.8946 24.695 40.9287 27.2561H37.3787C32.5315 27.2561 29.6641 29.3673 29.6641 32.863C29.6641 36.2894 32.4632 38.0891 35.2281 38.0891C37.4469 38.0891 39.3585 37.3969 40.9287 36.0817V36.1163C40.9287 37.12 41.7138 37.916 42.7038 37.916C43.6937 37.916 44.5129 37.12 44.5129 36.1163V26.91C44.5129 23.5182 42.3283 20.1265 37.4811 20.1265ZM36.3205 34.7319C34.3065 34.7319 33.2483 33.9705 33.2483 32.4823C33.2483 31.9285 33.2483 30.2672 37.7541 30.2672H40.8946V32.5169C39.9729 33.5552 38.232 34.7319 36.3205 34.7319Z" fill="#888888"/>
<path d="M51.5448 13.6196H51.34C50.2477 13.6196 49.3601 14.5195 49.3601 15.627V15.7655C49.3601 16.873 50.2477 17.7728 51.34 17.7728H51.5448C52.6371 17.7728 53.5246 16.873 53.5246 15.7655V15.627C53.5246 14.5195 52.6371 13.6196 51.5448 13.6196Z" fill="#888888"/>
<path d="M51.4424 20.2639C50.4525 20.2639 49.6674 21.0599 49.6674 22.0982V36.0461C49.6674 37.0498 50.4525 37.8458 51.4424 37.8458C52.4665 37.8458 53.2516 37.0498 53.2516 36.0461V22.0982C53.2516 21.0946 52.4665 20.2639 51.4424 20.2639Z" fill="#888888"/>
<path d="M60.5566 13.1001C59.5666 13.1001 58.7815 13.8961 58.7815 14.9344V36.0466C58.7815 37.0503 59.5666 37.8463 60.5566 37.8463C61.5806 37.8463 62.3657 37.0503 62.3657 36.0466V14.9344C62.3657 13.9307 61.5806 13.1001 60.5566 13.1001Z" fill="#888888"/>
<path d="M74.7909 20.1265C72.2307 20.1265 70.1143 21.0955 68.6807 22.9299C67.4518 24.5219 66.7691 26.7024 66.7691 29.0905C66.7691 34.6973 70.0119 38.0545 75.4053 38.0545C78.3751 38.0545 79.8429 37.3623 81.1742 36.5662C81.8227 36.1855 82.1641 35.6318 82.1641 35.078C82.1641 34.1781 81.4472 33.4513 80.5256 33.4513C80.2525 33.4513 80.0136 33.4859 79.8087 33.6244C78.853 34.1435 77.6582 34.5935 75.6442 34.5935C72.6403 34.5935 70.8653 33.1745 70.4215 30.4749H80.9011C81.9593 30.4749 82.7102 29.7135 82.7102 28.6751C82.7785 22.7914 78.6481 20.1265 74.7909 20.1265ZM74.7909 23.3106C76.2928 23.3106 78.8188 24.1758 79.1602 27.36H70.4215C70.7629 24.5566 72.811 23.3106 74.7909 23.3106Z" fill="#888888"/>
<path d="M95.2379 20.1265H95.0672C93.3604 20.1265 91.7902 20.9571 90.3565 22.5492V22.0992C90.3565 21.0955 89.5373 20.2649 88.5474 20.2649C87.5574 20.2649 86.7723 21.0955 86.7723 22.0992V36.0471C86.7723 37.0508 87.5574 37.8468 88.5474 37.8468C89.5373 37.8468 90.3565 37.0508 90.3565 36.0471V26.2524C91.5171 24.5566 93.1556 23.6221 94.9989 23.6221H95.1696C96.2278 23.6221 96.9788 22.8953 96.9788 21.8916C96.9788 20.8879 96.2278 20.1265 95.2379 20.1265Z" fill="#888888"/>
<path fill-rule="evenodd" clip-rule="evenodd" d="M109.994 0H146.93C149.811 0 152.137 2.31157 152.172 5.17515V25.8067C152.172 28.6358 149.811 30.9819 146.965 30.9819H111.973L104.787 38.0546V25.8067V22.4256V5.17515C104.787 2.34607 107.148 0 109.994 0ZM114.472 24.5304C115.236 24.5304 115.861 23.9439 115.861 23.1849V8.52196C115.861 7.76294 115.236 7.14192 114.472 7.14192C113.708 7.14192 113.118 7.76294 113.118 8.52196V23.1849C113.118 23.9094 113.708 24.5304 114.472 24.5304ZM122.318 23.185C122.318 23.944 121.693 24.5305 120.929 24.5305C120.165 24.5305 119.575 23.9095 119.575 23.185V13.4902C119.575 12.7312 120.165 12.1101 120.929 12.1101C121.693 12.1101 122.318 12.7312 122.318 13.4902V23.185ZM120.998 10.5566C121.831 10.5566 122.491 9.90105 122.491 9.07303V8.96953C122.491 8.1415 121.831 7.48598 120.998 7.48598H120.859C120.026 7.48598 119.367 8.1415 119.367 8.96953V9.07303C119.367 9.90105 120.026 10.5566 120.859 10.5566H120.998ZM132.28 24.2199C131.621 24.5304 130.961 24.6684 130.232 24.6684C127.837 24.6684 126.553 23.5299 126.553 21.3563V14.6977H125.303C124.852 14.6977 124.539 14.3526 124.539 13.9386C124.539 13.6971 124.643 13.4556 124.852 13.2831L127.907 10.2815C127.976 10.2125 128.219 9.97101 128.531 9.97101C128.983 9.97101 129.295 10.316 129.295 10.7645V12.2136H131.517C132.211 12.2136 132.766 12.7656 132.766 13.4556C132.766 14.1456 132.211 14.6977 131.517 14.6977H129.33V21.1838C129.33 22.1154 129.816 22.1844 130.475 22.1844C130.763 22.1844 130.952 22.1453 131.116 22.1113C131.171 22.1001 131.222 22.0894 131.274 22.0809C131.327 22.0703 131.38 22.0565 131.434 22.0424L131.434 22.0424C131.557 22.0105 131.685 21.9774 131.829 21.9774C132.385 21.9774 133.009 22.4259 133.009 23.1504C132.975 23.5989 132.732 24.0129 132.28 24.2199ZM138.84 21.7733C140.244 21.7733 141.031 21.4671 141.716 21.1269C141.887 21.0248 142.058 20.9908 142.264 20.9908C142.948 20.9908 143.496 21.5352 143.496 22.2156C143.496 22.6579 143.222 23.0661 142.743 23.3383C141.784 23.8827 140.757 24.359 138.635 24.359C134.801 24.359 132.473 22.0115 132.473 18.099C132.473 13.506 135.554 11.8389 138.19 11.8389C142.093 11.8389 143.873 14.9349 143.873 17.7928C143.873 18.5753 143.291 19.1196 142.503 19.1196H135.315C135.657 20.8547 136.889 21.7733 138.84 21.7733ZM138.224 14.2548C136.924 14.2548 135.554 15.0373 135.315 16.8405H141.168C140.894 15.0373 139.525 14.2548 138.224 14.2548Z" fill="#888888"/>
</g>
</svg>
