<svg width="155" height="36" viewBox="0 0 155 36" fill="none" xmlns="http://www.w3.org/2000/svg">
<path d="M17.7 35.4C27.4754 35.4 35.4 27.4754 35.4 17.7C35.4 7.92456 27.4754 0 17.7 0C7.92456 0 0 7.92456 0 17.7C0 27.4754 7.92456 35.4 17.7 35.4Z" fill="#1FADAD"/>
<path d="M27.2 12.0001L26.7 11.8001L22.5 9.3001L17.8 6.6001C17.7 6.6001 17.6 6.6001 17.5 6.6001L8.19998 12.0001C8.09998 12.0001 8.09998 12.1001 8.09998 12.2001V16.2001C8.09998 16.3001 8.19998 16.4001 8.19998 16.4001L10.1 17.5001C10.2 17.5001 10.3 17.5001 10.4 17.5001L12.4 16.3001C12.5 16.2001 12.5 16.2001 12.5 16.1001C12.5 16.0001 12.4 15.9001 12.4 15.9001L10.7 14.9001V13.5001L17.8 9.4001L24.6 13.3001L21.3 15.2001L18.2 13.4001L18 13.5001V11.5001C18 11.4001 17.9 11.3001 17.9 11.3001C17.8 11.3001 17.7 11.3001 17.6 11.3001L15.6 12.5001C15.5 12.5001 15.5 12.6001 15.5 12.7001V14.8001C15.5 14.9001 15.6 15.0001 15.6 15.0001L21.1 18.2001H21.2H21.3L23.3 17.0001L24.8 16.2001L27.2 14.8001C27.3 14.7001 27.3 14.7001 27.3 14.6001V12.3001C27.3 12.2001 27.2 12.1001 27.2 12.0001Z" fill="white"/>
<path d="M27.2 18.8002L25.3 17.7002C25.2 17.7002 25.1 17.7002 25 17.7002L23 18.9002C22.9 19.0002 22.9 19.0002 22.9 19.1002C22.9 19.2002 23 19.3002 23 19.3002L24.7 20.3002V21.7002L18.9 25.1002L17.7 25.8002L13.1 23.1002H13L11 21.9002L14.3 20.0002L17.5 21.8002V23.8002C17.5 23.9002 17.6 24.0002 17.6 24.0002C17.7 24.0002 17.8 24.1002 17.9 24.0002L19.9 22.9002C20 22.9002 20 22.8002 20 22.7002V20.5002C20 20.4002 19.9 20.3002 19.9 20.3002L17.2 18.8002L15.3 17.7002L14.4 17.2002C14.3 17.2002 14.2 17.2002 14.1 17.2002L12.1 18.3002L8.2 20.6002C8.1 20.6002 8 20.7002 8 20.8002V23.1002C8 23.2002 8.1 23.3002 8.2 23.3002L8.7 23.5002L12.8 25.9002H12.9L15.6 27.5002L17.6 28.6002H17.7H17.8L18.3 28.3002L22.4 25.8002L26.6 23.4002L27.1 23.1002C27.2 23.1002 27.3 23.0002 27.3 22.9002V18.9002C27.3 19.0002 27.3 18.9002 27.2 18.8002Z" fill="white"/>
<path d="M45.8 25.7999C44.8 25.2999 44.1 24.5999 43.6 23.7999C43.1 22.9999 42.8 22.1999 42.6 21.3999L45.9 20.5999C46.3 22.3999 47.5 23.2999 49.5 23.2999C50.2 23.2999 50.7 23.0999 51.2 22.7999C51.6 22.4999 51.8 22.0999 51.8 21.5999C51.8 21.1999 51.6 20.7999 51.3 20.4999C51 20.1999 50.6 19.9999 50 19.8999L47.7 19.4999C46.3 19.1999 45.2 18.6999 44.4 17.7999C43.6 16.8999 43.2 15.7999 43.2 14.3999C43.2 13.4999 43.5 12.5999 44 11.8999C44.5 11.0999 45.3 10.4999 46.1 10.0999C47 9.6999 47.9 9.3999 48.9 9.3999C50.2 9.3999 51.3 9.5999 52.2 10.0999C53.1 10.4999 53.8 11.0999 54.2 11.6999C54.6 12.2999 55 12.9999 55.1 13.6999L51.9 14.6999C51.6 13.8999 51.2 13.3999 50.8 13.0999C50.4 12.7999 49.8 12.6999 49 12.6999C48.6 12.6999 48.2 12.7999 47.9 12.9999C47.6 13.1999 47.3 13.3999 47.2 13.5999C47 13.8999 46.9 14.0999 46.9 14.3999C46.9 14.7999 47 15.1999 47.3 15.4999C47.6 15.7999 48 15.9999 48.5 16.0999L50.8 16.5999C52.3 16.8999 53.5 17.4999 54.3 18.3999C55.1 19.2999 55.5 20.3999 55.5 21.5999C55.5 22.4999 55.3 23.2999 54.8 24.0999C54.3 24.8999 53.6 25.4999 52.7 25.9999C51.8 26.4999 50.7 26.6999 49.5 26.6999C47.9 26.5999 46.8 26.2999 45.8 25.7999Z" fill="#1FADAD"/>
<path d="M59.9 25.2C59.1 24.4 58.7 23.3 58.7 21.9V17H56.7V14.1H56.7999C57.3999 14.1 57.9 13.9 58.2 13.6C58.5 13.3 58.7 12.8 58.7 12.2V11.3H62V14.1H64.8V17H62V21.7C62 22.3 62.2 22.8 62.5 23.1C62.8 23.4 63.3999 23.6 64.0999 23.6C64.2999 23.6 64.6 23.6 64.9 23.5V26.4C64.4 26.5 63.8999 26.5 63.2999 26.5C61.7999 26.4 60.7 26 59.9 25.2Z" fill="#1FADAD"/>
<path d="M67.5 25.6C66.7 25 66.4 24.1 66.4 23C66.4 22 66.8 21.1 67.5 20.4C68.2 19.7 69.3 19.3 70.7 19L74.1 18.5V18.2C74.1 17.7 73.9 17.3 73.5 17C73.1 16.7 72.6 16.5 72 16.5C71.4 16.5 70.9 16.7 70.4 17C69.9 17.3 69.6 17.8 69.4 18.3L66.7 17C67.1 16 67.7 15.2 68.7 14.6C69.7 14 70.8 13.7 72.1 13.7C73.1 13.7 74 13.9 74.8 14.3C75.6 14.7 76.2 15.2 76.6 15.9C77 16.6 77.3 17.3 77.3 18.2V26.3H74.2V25.2C73.7 25.7 73.2 26 72.6 26.3C72 26.5 71.3 26.6 70.6 26.6C69.3 26.6 68.2 26.3 67.5 25.6ZM70.2 23.8C70.5 24 70.8 24.1 71.3 24.1C72.1 24.1 72.8 23.8 73.3 23.3C73.8 22.8 74.1 22.1 74.1 21.4V21L71.3 21.5C70.8 21.6 70.4 21.7 70.2 22C70 22.3 69.8 22.5 69.8 22.9C69.8 23.3 69.9 23.6 70.2 23.8Z" fill="#1FADAD"/>
<path d="M82 25.2C81.2 24.4 80.8 23.3 80.8 21.9V17H78.8V14.1H78.9C79.5 14.1 80 13.9 80.3 13.6C80.6 13.3 80.8 12.8 80.8 12.2V11.3H84.1V14.1H87V17H84.2V21.7C84.2 22.3 84.4 22.8 84.7 23.1C85 23.4 85.6 23.6 86.3 23.6C86.5 23.6 86.8 23.6 87.1 23.5V26.4C86.6 26.5 86.1 26.5 85.5 26.5C84 26.4 82.8 26 82 25.2Z" fill="#1FADAD"/>
<path d="M89.2 9.19995C89.5 8.89995 90 8.69995 90.6 8.69995C91.2 8.69995 91.7 8.89995 92 9.19995C92.3 9.49995 92.5 9.99995 92.5 10.6C92.5 11.2 92.3 11.7 92 12C91.7 12.3 91.2 12.5 90.6 12.5C90 12.5 89.5 12.3 89.2 12C88.9 11.7 88.7 11.2 88.7 10.6C88.7 9.99995 88.9 9.59995 89.2 9.19995ZM88.9 14.1H92.2V26.2999H88.9V14.1Z" fill="#1FADAD"/>
<path d="M97.4 25.7C96.4 25.1 95.6 24.4 95.1 23.4C94.5 22.4 94.3 21.3 94.3 20.1C94.3 18.9 94.6 17.8 95.1 16.9C95.7 15.9 96.4 15.2 97.4 14.6C98.4 14 99.5 13.8 100.7 13.8C102.1 13.8 103.3 14.1 104.3 14.8C105.3 15.5 106 16.4 106.4 17.5L103.5 18.8C103.3 18.2 102.9 17.7 102.4 17.3C101.9 16.9 101.3 16.8 100.7 16.8C99.8 16.8 99.1 17.1 98.5 17.7C97.9 18.3 97.7 19.1 97.7 20.1C97.7 21.1 98 21.9 98.5 22.5C99.1 23.1 99.8 23.4 100.7 23.4C101.4 23.4 102 23.2 102.4 22.9C102.9 22.5 103.2 22.1 103.5 21.4L106.4 22.7C106 23.8 105.3 24.7 104.3 25.4C103.3 26.1 102.1 26.4 100.7 26.4C99.5 26.6 98.4 26.3 97.4 25.7Z" fill="#1FADAD"/>
<path d="M111 25.7999C110 25.2999 109.3 24.5999 108.8 23.7999C108.3 22.9999 108 22.1999 107.8 21.3999L111.1 20.5999C111.5 22.3999 112.7 23.2999 114.7 23.2999C115.4 23.2999 115.9 23.0999 116.4 22.7999C116.8 22.4999 117 22.0999 117 21.5999C117 21.1999 116.8 20.7999 116.5 20.4999C116.2 20.1999 115.8 19.9999 115.2 19.8999L112.9 19.4999C111.5 19.1999 110.4 18.6999 109.6 17.7999C108.8 16.8999 108.4 15.7999 108.4 14.3999C108.4 13.4999 108.7 12.5999 109.2 11.8999C109.7 11.0999 110.5 10.4999 111.3 10.0999C112.2 9.6999 113.1 9.3999 114.1 9.3999C115.4 9.3999 116.5 9.5999 117.4 10.0999C118.3 10.4999 119 11.0999 119.4 11.6999C119.8 12.2999 120.2 12.9999 120.3 13.6999L117.1 14.6999C116.8 13.8999 116.4 13.3999 116 13.0999C115.6 12.7999 115 12.6999 114.2 12.6999C113.8 12.6999 113.4 12.7999 113.1 12.9999C112.8 13.1999 112.5 13.3999 112.4 13.5999C112.2 13.8999 112.1 14.0999 112.1 14.3999C112.1 14.7999 112.2 15.1999 112.5 15.4999C112.8 15.7999 113.2 15.9999 113.7 16.0999L116 16.5999C117.5 16.8999 118.7 17.4999 119.5 18.3999C120.3 19.2999 120.7 20.3999 120.7 21.5999C120.7 22.4999 120.5 23.2999 120 24.0999C119.5 24.8999 118.8 25.4999 117.9 25.9999C117 26.4999 115.9 26.6999 114.7 26.6999C113.2 26.5999 112 26.2999 111 25.7999Z" fill="#1FADAD"/>
<path d="M125.5 25.8C124.5 25.2 123.7 24.5 123.1 23.5C122.5 22.5 122.2 21.4 122.2 20.2C122.2 19 122.5 17.9 123.1 16.9C123.7 15.9 124.5 15.2 125.5 14.6C126.5 14 127.6 13.8 128.8 13.8C130 13.8 131.1 14.1 132.1 14.6C133.1 15.2 133.9 15.9 134.5 16.9C135.1 17.9 135.4 19 135.4 20.2C135.4 21.4 135.1 22.5 134.5 23.5C133.9 24.5 133.1 25.2 132.1 25.8C131.1 26.4 130 26.6 128.8 26.6C127.6 26.6 126.5 26.3 125.5 25.8ZM126.5 22.6C127.1 23.2 127.8 23.5 128.7 23.5C129.6 23.5 130.3 23.2 130.9 22.6C131.5 22 131.7 21.2 131.7 20.2C131.7 19.2 131.4 18.4 130.8 17.8C130.2 17.2 129.5 16.9 128.6 16.9C127.7 16.9 127 17.2 126.4 17.8C125.8 18.4 125.5 19.2 125.5 20.2C125.7 21.2 126 22 126.5 22.6Z" fill="#1FADAD"/>
<path d="M138.5 17.2999H136.5V14.3999H138.5V14.1999C138.5 12.5999 138.9 11.3999 139.8 10.4999C140.6 9.59985 141.8 9.09985 143.3 9.09985C143.7 9.09985 144.1 9.09985 144.5 9.19985V12.0999C144.2 12.0999 144 11.9999 143.8 11.9999C142.5 11.9999 141.9 12.6999 141.9 14.1999V14.3999H144.5V17.2999H141.9V26.2999H138.6V17.2999H138.5Z" fill="#1FADAD"/>
<path d="M149.2 25.2C148.4 24.4 148 23.3 148 21.9V17H146V14.1H146.1C146.7 14.1 147.2 13.9 147.5 13.6C147.8 13.3 148 12.8 148 12.2V11.3H151.3V14.1H154.1V17H151.3V21.7C151.3 22.3 151.5 22.8 151.8 23.1C152.1 23.4 152.7 23.6 153.4 23.6C153.6 23.6 153.9 23.6 154.2 23.5V26.4C153.7 26.5 153.2 26.5 152.6 26.5C151.2 26.4 150 26 149.2 25.2Z" fill="#1FADAD"/>
</svg>
